# xmcd
#
# Track frame offsets: 
#        150
#        16081
#        37762
#        54051
#        73157
#        88797
#        101617
#        113671
#        125327
#        138851
#        156940
#        171050
#        189515
#        214902
#        236248
#        267002
#        279384
#        291187
#        313726
#        337497
#
# Disc length: 4862 seconds
#
# Revision: 0
# Processed by: cddbd v1.5.2PL0 Copyright (c) Steve Scherf et al.
# Submitted via: ExactAudioCopy v1.0b3
#
DISCID=2012fc14
DTITLE=Various Artist - 100x New Wave [CD 4)
DYEAR=2014
DGENRE=New Wave
TTITLE0=Sisters Of Mercy - Body Electric
TTITLE1=Echo and The Bunnymen - Back Of Love
TTITLE2=Public Image Limited - Public Image
TTITLE3=Skeletal Family - Promised Land
TTITLE4=Siglo XX - Dreams Of Pleasure
TTITLE5=Marine - Life In Reverse
TTITLE6=Names - Calcutta
TTITLE7=Au Pairs - Sex Without Stress
TTITLE8=Shriekback - Lined Up
TTITLE9=Stranglers - Peaches
TTITLE10=Robinson, Tom Band - 2-4-6-8 Motorway
TTITLE11=Cope, Julian - World Shut Your Mouth
TTITLE12=Jam - Going Underground
TTITLE13=Runaways - Cherry Bomb
TTITLE14=March Violets - Walk Into The Sun
TTITLE15=Finlay, Karen - Tales Of Taboo
TTITLE16=Creatures - Miss The Girl
TTITLE17=Dalis Car - Dalis Car
TTITLE18=Laibach - Life Is Life
TTITLE19=Jesus And Mary Chain - Just Like Honey
EXTD=
EXTT0=
EXTT1=
EXTT2=
EXTT3=
EXTT4=
EXTT5=
EXTT6=
EXTT7=
EXTT8=
EXTT9=
EXTT10=
EXTT11=
EXTT12=
EXTT13=
EXTT14=
EXTT15=
EXTT16=
EXTT17=
EXTT18=
EXTT19=
PLAYORDER=
